<?xml version="1.0" encoding="utf-8"?>
<!-- Generator: Adobe Illustrator 16.0.0, SVG Export Plug-In . SVG Version: 6.00 Build 0)  -->
<svg version="1.2" baseProfile="tiny" xmlns="http://www.w3.org/2000/svg" xmlns:xlink="http://www.w3.org/1999/xlink" x="0px"
	 y="0px" width="200px" height="100px" viewBox="0 0 200 100" xml:space="preserve">
<g id="cloud3">
	<path fill="#E8B089" d="M139.234,69.892c-0.169-9.667-6.332-17.809-14.913-20.916c0.005-0.224,0.03-0.447,0.026-0.673
		c-0.188-10.758-9.054-19.324-19.811-19.136c-1.502,0.027-2.953,0.229-4.353,0.575c-3.512-5.572-9.764-9.228-16.832-9.104
		c-10.232,0.18-18.478,8.222-19.093,18.266c-3.202-4.88-8.757-8.064-15.025-7.954c-9.713,0.171-17.45,8.184-17.279,17.897
		c0.016,0.923,0.104,1.829,0.257,2.71c-2.289-0.791-4.753-1.203-7.316-1.159C13.174,50.604,3.949,60.273,4.155,71.996
		c0.199,11.286,9.071,20.357,20.41,20.831l90.927,0.057c0.515,0.024,1.031-0.14,1.556-0.146c0.232-0.005,0.591,0.184,0.591,0.184
		C129.768,92.312,139.45,82.158,139.234,69.892z"/>
</g>
<g id="cloud">
	<path fill="#93C0C1" d="M198.968,70.176c-0.169-9.687-6.344-17.845-14.942-20.958c0.005-0.224,0.03-0.448,0.026-0.674
		c-0.188-10.779-9.071-19.363-19.85-19.174c-1.505,0.027-2.959,0.229-4.362,0.576c-3.519-5.583-9.783-9.247-16.865-9.123
		c-10.253,0.18-18.515,8.238-19.131,18.302c-3.209-4.889-8.774-8.08-15.055-7.97c-9.733,0.172-17.484,8.2-17.313,17.933
		c0.016,0.925,0.104,1.832,0.257,2.716c-2.293-0.793-4.763-1.206-7.33-1.161c-11.746,0.206-20.989,9.895-20.783,21.641
		c0.199,11.309,9.089,20.397,20.45,20.872l91.108,0.057c0.516,0.024,1.033-0.14,1.56-0.146c0.232-0.005,0.592,0.185,0.592,0.185
		C189.482,92.642,199.185,82.466,198.968,70.176z"/>
</g>
<g id="cloud2">
	<path fill="#CEF4F4" d="M45.727,76.01c0.127-7.266,4.759-13.387,11.209-15.721c-0.003-0.169-0.022-0.336-0.02-0.507
		c0.141-8.087,6.805-14.525,14.891-14.384c1.129,0.02,2.22,0.171,3.272,0.432c2.64-4.189,7.339-6.937,12.652-6.844
		c7.692,0.135,13.89,6.18,14.353,13.73c2.406-3.668,6.582-6.062,11.293-5.979c7.302,0.129,13.117,6.151,12.987,13.454
		c-0.012,0.693-0.078,1.374-0.192,2.037c1.72-0.596,3.572-0.904,5.499-0.871c8.811,0.155,15.745,7.423,15.59,16.234
		c-0.148,8.483-6.818,15.302-15.341,15.658l-68.347,0.042c-0.387,0.019-0.775-0.104-1.17-0.109
		c-0.175-0.004-0.444,0.138-0.444,0.138C52.843,92.863,45.564,85.23,45.727,76.01z"/>
</g>
</svg>
